<?xml version="1.0" encoding="iso-8859-1"?>
<!-- Generator: Adobe Illustrator 19.0.0, SVG Export Plug-In . SVG Version: 6.00 Build 0)  -->
<svg version="1.1" id="Capa_1" xmlns="http://www.w3.org/2000/svg" xmlns:xlink="http://www.w3.org/1999/xlink" x="0px" y="0px"
	 viewBox="0 0 512 512" style="enable-background:new 0 0 512 512;" xml:space="preserve">
<g>
	<g>
		<path d="M411.775,93.856l-22.383,82H122.608l-22.383-82H0v324.288h512V93.856H411.775z M367.125,346.766h-222.25
			c-29.254,0-53.054-23.8-53.054-53.054s23.8-53.054,53.054-53.054h222.25c29.254,0,53.054,23.8,53.054,53.054
			C420.179,322.966,396.379,346.766,367.125,346.766z"/>
	</g>
</g>
<g>
	<g>
		<polygon points="131.322,93.856 145.516,145.856 366.483,145.856 380.677,93.856 		"/>
	</g>
</g>
<g>
	<g>
		<path d="M144.875,270.658c-12.712,0-23.053,10.342-23.053,23.054c0,12.712,10.342,23.054,23.054,23.054
			c12.712,0,23.053-10.342,23.053-23.054C167.929,281,157.587,270.658,144.875,270.658z"/>
	</g>
</g>
<g>
	<g>
		<path d="M319.348,270.658H192.652c3.379,6.975,5.277,14.797,5.277,23.054s-1.898,16.079-5.277,23.054h126.696
			c-3.38-6.975-5.277-14.797-5.277-23.054S315.969,277.634,319.348,270.658z"/>
	</g>
</g>
<g>
	<g>
		<path d="M367.125,270.659c-12.713,0-23.055,10.342-23.055,23.054c0,12.712,10.342,23.054,23.055,23.054
			c12.712,0,23.054-10.342,23.054-23.054C390.179,281,379.837,270.659,367.125,270.659z"/>
	</g>
</g>
<g>
</g>
<g>
</g>
<g>
</g>
<g>
</g>
<g>
</g>
<g>
</g>
<g>
</g>
<g>
</g>
<g>
</g>
<g>
</g>
<g>
</g>
<g>
</g>
<g>
</g>
<g>
</g>
<g>
</g>
</svg>
